# AST/ASF file generated using VICON BodyLanguage
# -----------------------------------------------
:version 1.10
:name VICON
:units
  mass 1.0
  length 0.45
  angle deg
:documentation
   .ast/.asf automatically generated from VICON data using
   VICON BodyBuilder and BodyLanguage model FoxedUp or BRILLIANT.MOD
:root
   order TX TY TZ RX RY RZ
   axis XYZ
   position 0 0 0  
   orientation 0 0 0 
:bonedata
  begin
     id 1 
     name lhipjoint
     direction 0.627457 -0.725269 0.283342 
     length 2.53237 
     axis 0 0 0  XYZ
  end
  begin
     id 2 
     name lfemur
     direction 0.34202 -0.939693 0  
     length 7.32496  
     axis 0 0 20  XYZ
    dof rx ry rz
    limits (-160.0 20.0)
           (-70.0 70.0)
           (-60.0 70.0)
  end
  begin
     id 3 
     name ltibia
     direction 0.34202 -0.939693 0   
     length 7.69674   
     axis 0 0 20   XYZ
    dof rx
    limits (-10.0 170.0)
  end
  begin
     id 4 
     name lfoot
     direction 0.127289 -0.349722 0.928166   
     length 1.8612   
     axis -90 7.62852e-016 20   XYZ
    dof rx rz
    limits (-45.0 90.0)
           (-70.0 20.0)
  end
  begin
     id 5 
     name ltoes
     direction 1.53561e-011 -4.21864e-011 1   
     length 0.925608   
     axis -90 7.62852e-016 20   XYZ
    dof rx
    limits (-90.0 20.0)
  end
  begin
     id 6 
     name rhipjoint
     direction -0.609094 -0.738725 0.288599   
     length 2.48624  
     axis 0 0 0  XYZ 
  end
  begin
     id 7 
     name rfemur
     direction -0.34202 -0.939693 0   
     length 7.44259   
     axis 0 0 -20   XYZ
    dof rx ry rz
    limits (-160.0 20.0)
           (-70.0 70.0)
           (-70.0 60.0)
  end
  begin
     id 8 
     name rtibia
     direction -0.34202 -0.939693 0   
     length 7.7781   
     axis 0 0 -20   XYZ
    dof rx
    limits (-10.0 170.0)
 end
 begin
     id 9 
     name rfoot
     direction -0.107015 -0.294021 0.949789   
     length 2.14741  
     axis -90 -7.62852e-016 -20   XYZ
    dof rx rz
    limits (-45.0 90.0)
           (-20.0 70.0)
  end
  begin
     id 10 
     name rtoes
     direction -1.53497e-011 -4.21924e-011 1   
     length 1.0706   
     axis -90 -7.62852e-016 -20   XYZ
    dof rx
    limits (-90.0 20.0)
  end
  begin
     id 11 
     name lowerback
     direction -0.0142066 0.998112 -0.0597545   
     length 1.86627   
     axis 0 0 0   XYZ
    dof rx ry rz
    limits (-20.0 45.0)
           (-30.0 30.0)
           (-30.0 30.0)
  end
  begin
     id 12 
     name upperback
     direction 0.00547294 0.999744 0.0219437   
     length 1.86272   
     axis 0 0 0   XYZ
    dof rx ry rz
    limits (-20.0 45.0)
           (-30.0 30.0)
           (-30.0 30.0)
  end
  begin
     id 13 
     name thorax
     direction 0.0116162 0.998704 0.0495538   
     length 1.8703   
     axis 0 0 0   XYZ
    dof rx ry rz
    limits (-20.0 45.0)
           (-30.0 30.0)
           (-30.0 30.0)
  end
  begin
     id 14 
     name lowerneck
     direction -0.0106574 0.998739 0.0490586   
     length 1.8074   
     axis 0 0 0   XYZ
    dof rx ry rz
    limits (-20.0 45.0)
           (-30.0 30.0)
           (-30.0 30.0)
  end
  begin
     id 15 
     name upperneck
     direction 0.030527 0.976587 -0.212944   
     length 1.80681   
     axis 0 0 0   XYZ
    dof rx ry rz
    limits (-20.0 45.0)
           (-30.0 30.0)
           (-30.0 30.0)
  end
  begin
     id 16
     name head
     direction 0.00869225 0.997035 -0.0764531  
     length 1.8313  
     axis 0 0 0   XYZ
    dof rx ry rz
    limits (-20.0 45.0)
           (-30.0 30.0)
           (-30.0 30.0)
  end
  begin
     id 17 
     name lclavicle
     direction 0.915958 0.399447 0.0382386  
     length 3.78965  
     axis 0 0 0   XYZ
    dof ry rz
    limits (-20.0 10.0)
           (0.0 20.0)
  end
  begin
     id 18 
     name lhumerus
     direction 1 -4.48967e-011 3.19303e-027   
     length 4.78095   
     axis -180 -30 -90   XYZ
    dof rx ry rz
    limits (-60.0 90.0)
           (-90.0 90.0)
           (-90.0 90.0)
  end
  begin
     id 19
     name lradius
     direction 1 -4.48967e-011 -3.77974e-027   
     length 3.58615   
     axis -180 -30 -90   XYZ
    dof rx
    limits (-10.0 170.0)
  end
  begin
     id 20
     name lwrist
     direction 1 -4.48927e-011 1.2807e-027   
     length 1.79307   
     axis 1.91374e-015 90 90   XYZ
    dof ry
    limits (-180.0 0.0)
 end
  begin
     id 21 
     name lhand
     direction 1 -4.49036e-011 2.5614e-027   
     length 0.659812   
     axis -1.63439e-015 90 90   XYZ
    dof rx rz
    limits (-90.0 90.0)
           (-45.0 45.0)
  end
  begin
     id 22 
     name lfingers
     direction 1 -4.49052e-011 5.1228e-027   
     length 0.531957   
     axis -3.26879e-015 90 90   XYZ
    dof rx
    limits (0.0 90.0)
  end
  begin
     id 23
     name lthumb
     direction 0.707107 -6.35012e-011 0.707107   
     length 0.763787   
     axis -90 45 2.85299e-015   XYZ
    dof rx rz
    limits (-45.0 45.0)
           (-45.0 45.0)
  end
  begin
     id 24 
     name rclavicle
     direction -0.895351 0.435135 0.0948887   
     length 3.70497  
     axis 0 0 0   XYZ 
    dof ry rz
    limits (-10.0 20.0)
           (-20.0 0.0)
  end
  begin
     id 25 
     name rhumerus
     direction -1 -4.48971e-011 2.38946e-027  
     length 4.48913   
     axis -180 30 90   XYZ
    dof rx ry rz
    limits (-90.0 60.0)
           (-90.0 90.0)
           (-90.0 90.0)
  end
  begin
     id 26 
     name rradius
     direction -1 -4.4895e-011 4.38668e-027   
     length 3.7051   
     axis -180 30 90   XYZ
    dof rx
    limits (-10.0 170.0)
  end
  begin
     id 27 
     name rwrist
     direction -1 -4.49007e-011 1.2807e-027   
     length 1.85255   
     axis 1.91374e-015 -90 -90   XYZ
    dof ry
    limits (-180.0 0.0)
  end
  begin
     id 28
     name rhand
     direction -1 -4.48851e-011 2.5614e-027   
     length 0.449136   
     axis -1.63439e-015 -90 -90   XYZ
    dof rx rz
    limits (-90.0 90.0)
           (-45.0 45.0)
  end
  begin
     id 29
     name rfingers
     direction -1 -4.49128e-011 5.1228e-027   
     length 0.362105   
     axis -3.26879e-015 -90 -90   XYZ
    dof rx
    limits (0.0 90.0)
  end
  begin
     id 30
     name rthumb
     direction -0.707107 -6.34851e-011 0.707107   
     length 0.519912   
     axis -90 -45 -2.85299e-015   XYZ
    dof rx rz
    limits (-45.0 45.0)
           (-45.0 45.0)
  end
:hierarchy
  begin
    root lhipjoint rhipjoint lowerback
    lhipjoint lfemur
    lfemur ltibia
    ltibia lfoot
    lfoot ltoes
    rhipjoint rfemur
    rfemur rtibia
    rtibia rfoot
    rfoot rtoes
    lowerback upperback
    upperback thorax
    thorax lowerneck lclavicle rclavicle
    lowerneck upperneck
    upperneck head
    lclavicle lhumerus
    lhumerus lradius
    lradius lwrist
    lwrist lhand lthumb
    lhand lfingers
    rclavicle rhumerus
    rhumerus rradius
    rradius rwrist
    rwrist rhand rthumb
    rhand rfingers
  end

#!OML:ASF I:\Actors\actors\Patient Classification 2\Patient 1\Session 1\actor1.ASF
:FULLY-SPECIFIED
:DEGREES
43
root -1.03469 18.0941 5.78317 -0.498813 -4.32889 -6.01791
lowerback 2.12681 1.83132 4.95343
upperback -0.439785 2.59061 0.975797
thorax -1.47111 1.25349 -1.85288
lowerneck -11.4465 -2.00103 -0.805641
upperneck 21.2716 -3.47239 3.76427
head 8.59345 -1.31949 1.02773
rclavicle -1.21197e-014 -9.14409e-015
rhumerus -46.1456 -3.31821 -88.6631
rradius 40.9773
rwrist 21.5533
rhand -5.38432 -26.8242
rfingers 7.12502
rthumb 20.4241 -55.7701
lclavicle -1.21197e-014 -9.14409e-015
lhumerus -42.1644 0.00733158 91.282
lradius 39.6822
lwrist -9.20717
lhand -4.82027 -25.1249
lfingers 7.12502
lthumb 20.9661 3.76188
rfemur 9.55837 -0.416091 22.2659
rtibia 1.59028e-014
rfoot -15.6313 -7.62154
rtoes 8.74253
lfemur 20.4665 -8.43313 -11.2773
ltibia -20.5708
lfoot -4.80078 23.3469
ltoes -6.48212
44
root -1.0351 18.0941 5.78291 -0.484058 -4.31755 -6.00187
lowerback 2.15882 1.83109 4.91943
upperback -0.463369 2.59227 0.973395
thorax -1.5146 1.25324 -1.8382
lowerneck -11.4585 -2.03142 -0.78145
upperneck 21.2964 -3.51454 3.73573
head 8.60425 -1.33985 1.00942
rclavicle 6.51952e-015 1.98785e-015
rhumerus -46.1909 -3.25 -88.6904
rradius 40.9875
rwrist 21.5901
rhand -5.47773 -26.746
rfingers 7.12502
rthumb 20.3344 -55.7015
lclavicle 6.51952e-015 1.98785e-015
lhumerus -42.1485 0.120684 91.2671
lradius 39.6255
lwrist -9.294
lhand -4.81054 -25.1024
lfingers 7.12502
lthumb 20.9754 3.78336
rfemur 9.53924 -0.426128 22.2469
rtibia 1.43125e-014
rfoot -15.6243 -7.58794
rtoes 8.86481
lfemur 20.4333 -8.37962 -11.2808
ltibia -20.5598
lfoot -4.76672 23.2848
ltoes -6.52195
45
root -1.03555 18.0943 5.78382 -0.463519 -4.30565 -6.01195
lowerback 2.15058 1.8304 4.91246
upperback -0.469926 2.59091 0.97418
thorax -1.51716 1.25247 -1.83332
lowerneck -11.4811 -2.07235 -0.777211
upperneck 21.3087 -3.58458 3.78525
head 8.61545 -1.36701 1.01755
rclavicle -3.91357e-015 5.56597e-015
rhumerus -46.2026 -3.11052 -88.7583
rradius 40.9926
rwrist 21.5863
rhand -5.49884 -26.679
rfingers 7.12502
rthumb 20.3141 -55.6366
lclavicle -3.91357e-015 5.56597e-015
lhumerus -42.1354 0.225964 91.248
lradius 39.5958
lwrist -9.38466
lhand -4.83353 -25.1074
lfingers 7.12502
lthumb 20.9534 3.78081
rfemur 9.52088 -0.437682 22.2591
rtibia 4.77083e-015
rfoot -15.6495 -7.59489
rtoes 8.79714
lfemur 20.4052 -8.38137 -11.2649
ltibia -20.5485
lfoot -4.76842 23.2715
ltoes -6.5223
46
root -1.03531 18.0952 5.78471 -0.450652 -4.30149 -6.02002
lowerback 2.13382 1.82435 4.91801
upperback -0.453069 2.58126 0.971105
thorax -1.49065 1.24847 -1.83829
lowerneck -11.5104 -2.10965 -0.803175
upperneck 21.2675 -3.65271 3.88619
head 8.61126 -1.39118 1.04807
rclavicle 1.23309e-014 -7.55382e-015
rhumerus -46.1787 -2.97222 -88.8274
rradius 41.0222
rwrist 21.6062
rhand -5.34117 -26.6588
rfingers 7.12502
rthumb 20.4656 -55.6002
lclavicle 1.23309e-014 -7.55382e-015
lhumerus -42.1104 0.25395 91.2506
lradius 39.6098
lwrist -9.37264
lhand -4.85608 -25.071
lfingers 7.12502
lthumb 20.9317 3.81966
rfemur 9.51321 -0.441321 22.2675
rtibia -2.70347e-014
rfoot -15.6845 -7.6145
rtoes 8.72867
lfemur 20.3995 -8.45598 -11.2669
ltibia -20.5459
lfoot -4.82985 23.332
ltoes -6.32454
47
root -1.0351 18.0951 5.78512 -0.45353 -4.30212 -5.99207
lowerback 2.1227 1.81747 4.8703
upperback -0.423314 2.56904 0.973372
thorax -1.45671 1.24407 -1.80803
lowerneck -11.4835 -2.14616 -0.822094
upperneck 21.1271 -3.70391 3.93216
head 8.56133 -1.41476 1.06106
rclavicle 6.29278e-015 8.74653e-015
rhumerus -46.1373 -2.8349 -88.8707
rradius 41.0442
rwrist 21.6043
rhand -5.18363 -26.6651
rfingers 7.12502
rthumb 20.617 -55.5902
lclavicle 6.29278e-015 8.74653e-015
lhumerus -42.0848 0.248167 91.2845
lradius 39.648
lwrist -9.30513
lhand -4.83771 -25.0213
lfingers 7.12502
lthumb 20.9493 3.86734
rfemur 9.51073 -0.44009 22.237
rtibia 1.59028e-014
rfoot -15.6676 -7.62787
rtoes 8.83732
lfemur 20.405 -8.50277 -11.3096
ltibia -20.5437
lfoot -4.84203 23.3787
ltoes -6.34954
48
root -1.03546 18.0943 5.78583 -0.453877 -4.30678 -5.97704
lowerback 2.09555 1.81707 4.81751
upperback -0.397473 2.56458 0.980437
thorax -1.41772 1.24363 -1.76971
lowerneck -11.4536 -2.19836 -0.864907
upperneck 21.0168 -3.78585 4.0339
head 8.52365 -1.44869 1.09355
rclavicle -9.49197e-015 -4.77083e-015
rhumerus -46.1014 -2.74185 -88.9072
rradius 41.0352
rwrist 21.5863
rhand -5.09882 -26.6696
rfingers 7.12502
rthumb 20.6985 -55.5858
lclavicle -9.49197e-015 -4.77083e-015
lhumerus -42.0436 0.282402 91.2866
lradius 39.6434
lwrist -9.31971
lhand -4.76925 -25.0134
lfingers 7.12502
lthumb 21.0151 3.868
rfemur 9.50639 -0.434989 22.2201
rtibia 9.54166e-015
rfoot -15.6393 -7.60141
rtoes 9.14535
lfemur 20.4077 -8.52164 -11.3346
ltibia -20.5364
lfoot -4.82187 23.4065
ltoes -6.60259
49
root -1.03604 18.0945 5.78629 -0.440686 -4.31235 -5.977
lowerback 2.09222 1.8285 4.80655
upperback -0.404282 2.57941 0.968975
thorax -1.42183 1.2509 -1.77578
lowerneck -11.4758 -2.25695 -0.946207
upperneck 21.0298 -3.89071 4.20764
head 8.54053 -1.48646 1.15395
rclavicle -1.3595e-014 -9.93923e-015
rhumerus -46.0944 -2.71723 -88.9501
rradius 41.0001
rwrist 21.582
rhand -5.06488 -26.6623
rfingers 7.12502
rthumb 20.7311 -55.575
lclavicle -1.3595e-014 -9.93923e-015
lhumerus -42.0436 0.258214 91.2804
lradius 39.6334
lwrist -9.33451
lhand -4.71879 -25.0046
lfingers 7.12502
lthumb 21.0636 3.87145
rfemur 9.49472 -0.429031 22.221
rtibia 1.27222e-014
rfoot -15.6322 -7.58636
rtoes 9.20897
lfemur 20.3964 -8.54026 -11.3375
ltibia -20.5286
lfoot -4.83045 23.4234
ltoes -6.7376
50
root -1.03633 18.0955 5.78644 -0.427988 -4.31993 -5.97898
lowerback 2.12357 1.84194 4.82599
upperback -0.431629 2.60039 0.943025
thorax -1.46417 1.25971 -1.81555
lowerneck -11.4719 -2.30405 -0.9573
upperneck 21.0459 -3.97445 4.294
head 8.55 -1.51789 1.17579
rclavicle -1.42162e-014 0
rhumerus -46.1141 -2.72775 -88.9924
rradius 40.9562
rwrist 21.6206
rhand -5.09251 -26.6122
rfingers 7.12502
rthumb 20.7045 -55.5278
lclavicle -1.42162e-014 0
lhumerus -42.1078 0.196042 91.2736
lradius 39.6675
lwrist -9.31994
lhand -4.70998 -25.0211
lfingers 7.12502
lthumb 21.072 3.85395
rfemur 9.48165 -0.421662 22.2263
rtibia 9.54166e-015
rfoot -15.6376 -7.62217
rtoes 8.90788
lfemur 20.3845 -8.57848 -11.3397
ltibia -20.5196
lfoot -4.86591 23.4645
ltoes -6.58658
51
root -1.03618 18.0961 5.78684 -0.417683 -4.32566 -5.98138
lowerback 2.14766 1.84005 4.83563
upperback -0.45273 2.60014 0.926699
thorax -1.49827 1.25833 -1.83904
lowerneck -11.3936 -2.33488 -0.897223
upperneck 20.979 -4.02396 4.28305
head 8.51304 -1.53998 1.1573
rclavicle 1.4825e-014 -5.1684e-015
rhumerus -46.1313 -2.72884 -89.0291
rradius 40.9122
rwrist 21.7009
rhand -5.11673 -26.5604
rfingers 7.12502
rthumb 20.6813 -55.4785
lclavicle 1.4825e-014 -5.1684e-015
lhumerus -42.1685 0.203543 91.2409
lradius 39.7103
lwrist -9.32754
lhand -4.69938 -25.0812
lfingers 7.12502
lthumb 21.0822 3.7927
rfemur 9.47136 -0.415341 22.2276
rtibia -3.18055e-015
rfoot -15.6459 -7.63411
rtoes 8.7764
lfemur 20.374 -8.64149 -11.3481
ltibia -20.5065
lfoot -4.90983 23.5305
ltoes -6.3994
52
root -1.03611 18.0959 5.78724 -0.416615 -4.32569 -5.97201
lowerback 2.17699 1.83307 4.81975
upperback -0.467589 2.59269 0.921427
thorax -1.53097 1.25375 -1.83685
lowerneck -11.3339 -2.35659 -0.895698
upperneck 20.9218 -4.05581 4.30181
head 8.48403 -1.55493 1.16039
rclavicle 2.2298e-014 1.39149e-014
rhumerus -46.1392 -2.72014 -89.0424
rradius 40.8865
rwrist 21.7208
rhand -5.10981 -26.4875
rfingers 7.12502
rthumb 20.6879 -55.4049
lclavicle 2.2298e-014 1.39149e-014
lhumerus -42.1878 0.242868 91.218
lradius 39.7155
lwrist -9.35014
lhand -4.67445 -25.1446
lfingers 7.12502
lthumb 21.1062 3.72671
rfemur 9.47269 -0.414496 22.2155
rtibia -1.90833e-014
rfoot -15.6471 -7.62682
rtoes 8.75317
lfemur 20.3673 -8.67271 -11.3638
ltibia -20.4943
lfoot -4.93309 23.5515
ltoes -6.51168
53
root -1.03641 18.0955 5.78782 -0.41601 -4.32652 -5.97699
lowerback 2.18577 1.83069 4.80845
upperback -0.467348 2.58982 0.9273
thorax -1.53659 1.25233 -1.82478
lowerneck -11.373 -2.37949 -0.918335
upperneck 20.9441 -4.09091 4.33036
head 8.50096 -1.56945 1.16958
rclavicle -1.03368e-014 3.97569e-015
rhumerus -46.1417 -2.73859 -89.0273
rradius 40.8981
rwrist 21.716
rhand -5.05156 -26.4353
rfingers 7.12502
rthumb 20.7439 -55.3466
lclavicle -1.03368e-014 3.97569e-015
lhumerus -42.1684 0.248443 91.2241
lradius 39.7063
lwrist -9.35158
lhand -4.66521 -25.1741
lfingers 7.12502
lthumb 21.1151 3.69619
rfemur 9.47459 -0.414093 22.2227
rtibia 2.06736e-014
rfoot -15.6373 -7.63204
rtoes 8.64434
lfemur 20.366 -8.66331 -11.3546
ltibia -20.4884
lfoot -4.96997 23.5399
ltoes -6.47504
54
root -1.03683 18.095 5.78897 -0.406733 -4.33474 -5.99349
lowerback 2.15786 1.82246 4.8007
upperback -0.452254 2.57654 0.937425
thorax -1.50706 1.24672 -1.80833
lowerneck -11.4409 -2.39333 -0.875444
upperneck 20.9772 -4.11272 4.29277
head 8.52368 -1.57863 1.14674
rclavicle 3.96979e-014 2.50469e-014
rhumerus -46.1118 -2.78182 -89.0183
rradius 40.8898
rwrist 21.7868
rhand -4.9893 -26.4528
rfingers 7.12502
rthumb 20.8037 -55.3575
lclavicle 3.96979e-014 2.50469e-014
lhumerus -42.1541 0.243037 91.2194
lradius 39.7343
lwrist -9.32152
lhand -4.70393 -25.1759
lfingers 7.12502
lthumb 21.0779 3.69849
rfemur 9.46873 -0.406166 22.2419
rtibia 6.36111e-015
rfoot -15.6225 -7.63551
rtoes 8.59084
lfemur 20.3654 -8.64106 -11.3315
ltibia -20.4893
lfoot -4.99849 23.5284
ltoes -6.2123
55
root -1.03683 18.0945 5.79064 -0.395268 -4.35197 -6.00257
lowerback 2.13499 1.81624 4.81319
upperback -0.442595 2.56676 0.933335
thorax -1.4842 1.24238 -1.81815
lowerneck -11.4682 -2.39848 -0.853117
upperneck 20.9731 -4.12386 4.28951
head 8.52716 -1.58218 1.14037
rclavicle 4.74164e-014 1.51076e-014
rhumerus -46.0574 -2.83208 -89.0334
rradius 40.848
rwrist 21.8231
rhand -5.03444 -26.4911
rfingers 7.12502
rthumb 20.7603 -55.4005
lclavicle 4.74164e-014 1.51076e-014
lhumerus -42.1532 0.234707 91.1956
lradius 39.7572
lwrist -9.28965
lhand -4.78344 -25.2532
lfingers 7.12502
lthumb 21.0015 3.62973
rfemur 9.46315 -0.388952 22.2536
rtibia -2.06736e-014
rfoot -15.6251 -7.64843
rtoes 8.54978
lfemur 20.3626 -8.58022 -11.3125
ltibia -20.4976
lfoot -4.963 23.491
ltoes -6.20071
56
root -1.03671 18.0949 5.79244 -0.379568 -4.36395 -6.021
lowerback 2.11843 1.81583 4.85603
upperback -0.444118 2.5663 0.926893
thorax -1.47439 1.24193 -1.848
lowerneck -11.4846 -2.40244 -0.868614
upperneck 20.9858 -4.13237 4.31348
head 8.53563 -1.58454 1.14993
rclavicle -1.34677e-014 -2.06736e-014
rhumerus -46.0321 -2.85328 -89.0648
rradius 40.8481
rwrist 21.7605
rhand -5.10178 -26.5712
rfingers 7.12502
rthumb 20.6956 -55.4878
lclavicle -1.34677e-014 -2.06736e-014
lhumerus -42.1396 0.24943 91.169
lradius 39.7449
lwrist -9.29954
lhand -4.82246 -25.3533
lfingers 7.12502
lthumb 20.964 3.53381
rfemur 9.45917 -0.377136 22.2767
rtibia -1.27222e-014
rfoot -15.6391 -7.65621
rtoes 8.58955
lfemur 20.3578 -8.55917 -11.289
ltibia -20.5073
lfoot -4.92801 23.4863
ltoes -6.37026
57
root -1.0369 18.0952 5.79278 -0.371461 -4.3694 -6.03148
lowerback 2.12308 1.81541 4.87335
upperback -0.453619 2.56691 0.932795
thorax -1.48628 1.24168 -1.85198
lowerneck -11.4823 -2.39336 -0.891539
upperneck 21.0099 -4.11639 4.31467
head 8.54334 -1.5783 1.156
rclavicle 6.95125e-015 1.94809e-014
rhumerus -46.0488 -2.81987 -89.0933
rradius 40.8732
rwrist 21.6916
rhand -5.1504 -26.6688
rfingers 7.12502
rthumb 20.6489 -55.5904
lclavicle 6.95125e-015 1.94809e-014
lhumerus -42.1313 0.307717 91.1488
lradius 39.7368
lwrist -9.32826
lhand -4.77348 -25.3755
lfingers 7.12502
lthumb 21.011 3.50635
rfemur 9.45451 -0.371855 22.2895
rtibia -3.18055e-015
rfoot -15.599 -7.64342
rtoes 8.70102
lfemur 20.3663 -8.6336 -11.29
ltibia -20.5201
lfoot -4.91606 23.5635
ltoes -6.58488
